<?xml version="1.0" standalone="no"?>
<!DOCTYPE svg PUBLIC "-//W3C//DTD SVG 20010904//EN"
 "http://www.w3.org/TR/2001/REC-SVG-20010904/DTD/svg10.dtd">
<svg version="1.0" xmlns="http://www.w3.org/2000/svg"
 width="530.000000pt" height="196.000000pt" viewBox="0 0 530.000000 196.000000"
 preserveAspectRatio="xMidYMid meet">

<g transform="translate(0.000000,196.000000) scale(0.100000,-0.100000)"
fill="#000000" stroke="none">
<path d="M2101 1781 c-6 -10 -28 -60 -50 -110 -38 -88 -39 -92 -18 -89 13 2
30 19 44 43 l22 40 7 -32 c7 -35 11 -38 32 -24 10 6 12 22 8 52 -3 24 -8 65
-11 92 -7 50 -18 59 -34 28z"/>
<path d="M3672 1598 c-7 -7 -12 -20 -12 -30 0 -10 -5 -18 -11 -18 -8 0 -8 -4
-1 -13 6 -7 12 -37 14 -67 4 -69 22 -68 26 1 3 41 7 52 23 56 26 7 24 19 -3
27 l-23 7 23 16 c12 8 22 19 22 24 0 13 -44 11 -58 -3z"/>
<path d="M2045 1537 c-264 -68 -290 -83 -181 -102 33 -5 61 -15 63 -22 2 -6
-16 -60 -41 -118 -47 -110 -54 -135 -36 -135 17 0 480 412 480 427 0 20 -29
15 -285 -50z"/>
<path d="M2575 1524 c-35 -78 -43 -114 -25 -114 6 0 16 11 22 25 9 21 18 25
53 25 35 0 46 -5 60 -26 11 -18 20 -23 27 -16 7 7 0 34 -23 84 -56 125 -66
127 -114 22z m58 -32 c-33 -5 -35 -1 -21 36 l12 32 17 -32 c17 -33 17 -33 -8
-36z"/>
<path d="M2761 1541 c-30 -30 -27 -75 6 -101 26 -20 36 -21 77 -5 16 7 17 6 6
-14 -9 -18 -19 -22 -50 -20 -43 3 -62 -7 -40 -21 27 -17 89 -11 110 10 16 16
20 33 20 90 0 66 -1 70 -22 70 -13 -1 -37 2 -55 6 -24 5 -36 1 -52 -15z m83
-27 c9 -8 16 -18 16 -21 0 -11 -33 -43 -43 -43 -13 0 -47 30 -47 41 0 13 30
39 45 39 7 0 21 -7 29 -16z"/>
<path d="M2945 1535 c-30 -30 -32 -64 -4 -99 22 -28 75 -36 97 -14 21 21 13
27 -29 25 -61 -3 -63 21 -2 25 58 4 67 25 29 63 -32 32 -60 32 -91 0z m73 -27
c3 -14 -3 -18 -27 -18 -29 0 -41 17 -24 34 13 13 48 1 51 -16z"/>
<path d="M3147 1554 c-4 -4 -17 -7 -29 -8 -21 -1 -23 -7 -26 -60 -2 -34 2 -64
8 -70 16 -16 30 11 30 60 0 29 5 44 16 48 26 10 43 -12 46 -62 4 -64 22 -55
26 12 2 39 -1 58 -13 70 -17 16 -46 21 -58 10z"/>
<path d="M3275 1535 c-30 -30 -32 -64 -4 -99 28 -36 109 -35 109 1 0 11 -7 13
-30 8 -37 -8 -60 8 -60 40 0 34 25 51 55 37 31 -14 46 5 20 25 -28 20 -63 16
-90 -12z"/>
<path d="M3496 1509 l-23 -53 -18 47 c-10 26 -24 47 -31 47 -20 0 -17 -20 10
-83 26 -57 25 -67 -6 -67 -10 0 -18 -7 -18 -15 0 -10 10 -15 30 -15 28 0 33 6
61 66 37 83 44 110 30 119 -7 4 -20 -14 -35 -46z"/>
<path d="M3785 1548 c-29 -16 -35 -28 -35 -70 0 -43 27 -68 73 -68 35 0 77 40
77 75 0 14 -11 37 -25 50 -26 27 -58 31 -90 13z m65 -32 c28 -35 -11 -93 -47
-70 -36 22 -23 84 17 84 10 0 23 -7 30 -14z"/>
<path d="M3981 1551 c-7 -5 -22 -6 -33 -3 -18 4 -19 0 -16 -64 3 -77 19 -88
30 -22 5 29 16 49 33 61 33 25 21 50 -14 28z"/>
<path d="M1025 1396 c-138 -27 -213 -61 -380 -171 -189 -125 -374 -296 -478
-441 -50 -70 -105 -188 -117 -254 -26 -139 43 -263 187 -332 116 -55 213 -47
342 29 78 47 213 173 311 290 41 48 79 93 84 100 8 9 10 -15 7 -84 -4 -135 5
-192 42 -254 87 -145 238 -156 431 -32 103 66 184 140 297 272 185 214 282
391 216 391 -8 0 -50 -41 -93 -91 -152 -176 -340 -343 -486 -432 -74 -44 -99
-46 -128 -9 -20 25 -22 35 -17 118 6 107 42 225 117 381 55 116 81 156 174
268 60 72 66 83 66 125 0 130 -146 188 -233 92 -18 -20 -18 -20 -75 9 -70 36
-164 45 -267 25z m219 -178 c-38 -63 -437 -513 -588 -664 -188 -188 -271 -254
-323 -254 -42 0 -59 72 -37 156 72 279 481 677 779 759 67 18 179 20 169 3z"/>
<path d="M2152 1358 c-7 -7 -12 -30 -12 -52 l-1 -41 -20 24 c-18 22 -21 23
-36 8 -15 -14 -11 -21 37 -82 49 -62 75 -77 75 -44 -1 53 -18 199 -24 199 -4
0 -12 -5 -19 -12z"/>
<path d="M4186 1263 c-3 -3 -6 -48 -6 -100 0 -76 3 -93 15 -93 11 0 15 11 15
43 0 51 11 70 36 65 15 -2 20 -14 24 -53 4 -36 9 -50 20 -50 19 0 26 85 10
116 -10 18 -18 21 -51 16 -37 -5 -39 -4 -39 23 0 29 -12 45 -24 33z"/>
<path d="M2562 1244 c-45 -31 -20 -82 51 -99 36 -9 44 -25 22 -41 -15 -11 -23
-11 -51 1 -38 16 -56 3 -32 -22 18 -18 93 -20 113 -3 18 15 20 64 3 77 -7 6
-30 16 -50 22 -39 13 -50 37 -22 48 8 3 26 1 39 -5 31 -14 46 5 20 25 -25 17
-65 17 -93 -3z"/>
<path d="M2873 1248 c2 -7 10 -13 17 -13 7 0 15 6 18 13 2 7 -5 12 -18 12 -13
0 -20 -5 -17 -12z"/>
<path d="M3717 1254 c-14 -14 -7 -23 21 -26 27 -3 27 -4 30 -81 4 -103 25
-101 32 4 5 72 6 74 33 77 16 2 27 8 24 15 -4 13 -128 22 -140 11z"/>
<path d="M4695 1247 c-3 -7 -5 -49 -3 -93 2 -62 6 -79 18 -79 12 0 15 17 15
89 0 63 -4 91 -12 93 -7 3 -15 -2 -18 -10z"/>
<path d="M2730 1190 c-59 -59 18 -160 87 -115 32 21 17 43 -17 25 -18 -9 -25
-8 -41 6 -39 35 -13 81 40 71 34 -7 45 1 30 20 -17 20 -76 16 -99 -7z"/>
<path d="M2874 1197 c-3 -8 -4 -39 -2 -68 2 -40 7 -54 18 -54 20 0 22 126 3
132 -7 3 -15 -2 -19 -10z"/>
<path d="M2960 1190 c-56 -56 9 -150 82 -119 15 6 28 15 28 19 0 15 -13 19
-32 9 -23 -12 -58 -3 -58 16 0 9 15 15 48 17 44 3 47 5 44 28 -5 50 -74 68
-112 30z m68 -12 c20 -20 14 -28 -25 -28 -35 0 -36 0 -18 20 21 23 27 24 43 8z"/>
<path d="M3113 1194 c-9 -23 2 -118 15 -122 8 -2 12 10 12 40 0 46 13 68 41
68 21 0 29 -20 29 -72 0 -27 4 -38 13 -36 16 6 22 105 6 124 -14 17 -109 15
-116 -2z"/>
<path d="M3290 1188 c-44 -47 -11 -122 54 -122 39 0 63 15 52 33 -5 8 -13 8
-27 1 -38 -21 -79 23 -58 62 9 16 18 19 45 15 36 -6 56 9 33 24 -26 17 -77 10
-99 -13z"/>
<path d="M3440 1190 c-45 -45 -11 -124 54 -124 38 0 63 15 52 33 -5 7 -14 7
-31 -1 -19 -8 -28 -8 -40 2 -26 21 -17 30 30 30 53 0 66 17 41 55 -21 32 -77
34 -106 5z m75 -20 c18 -20 17 -20 -18 -20 -39 0 -45 8 -25 28 16 16 22 15 43
-8z"/>
<path d="M3876 1195 c-57 -57 3 -154 77 -126 26 10 33 21 21 34 -3 3 -17 1
-30 -5 -17 -8 -27 -8 -39 2 -26 22 -17 30 35 30 55 0 64 15 34 58 -18 26 -74
30 -98 7z m70 -22 c17 -17 16 -18 -15 -21 -40 -4 -48 2 -31 23 16 19 25 19 46
-2z"/>
<path d="M4037 1192 c-24 -26 -22 -85 3 -107 24 -21 72 -24 95 -5 22 18 3 35
-23 21 -27 -15 -51 -4 -58 25 -9 36 13 57 52 51 37 -6 48 1 33 20 -17 20 -83
16 -102 -5z"/>
<path d="M4350 1137 c0 -82 22 -90 30 -11 5 44 7 49 30 49 23 0 25 -5 30 -49
7 -74 30 -72 30 2 0 71 -10 82 -73 80 l-47 -2 0 -69z"/>
<path d="M4527 1192 c-22 -25 -22 -85 1 -104 29 -25 51 -29 87 -14 50 21 59
80 19 121 -22 21 -87 19 -107 -3z m92 -34 c10 -29 4 -46 -21 -59 -37 -20 -76
39 -46 69 20 20 58 14 67 -10z"/>
<path d="M4786 1194 c-38 -38 -31 -96 15 -120 32 -16 63 -12 92 14 23 21 23
84 -1 105 -23 21 -86 22 -106 1z m84 -29 c15 -18 6 -61 -16 -69 -19 -7 -50 8
-58 29 -16 42 45 75 74 40z"/>
<path d="M4957 1192 c-44 -48 -6 -119 58 -109 37 6 45 -3 20 -23 -9 -8 -28
-10 -50 -6 -22 5 -35 3 -35 -4 0 -16 50 -32 82 -25 44 10 60 43 56 116 l-3 63
-56 4 c-44 2 -59 -1 -72 -16z m91 -50 c-2 -22 -8 -27 -32 -27 -17 0 -33 7 -40
18 -9 15 -7 22 12 37 32 26 65 11 60 -28z"/>
<path d="M5120 1195 c0 -9 12 -38 26 -66 28 -55 26 -79 -6 -79 -11 0 -20 -4
-20 -9 0 -13 30 -22 50 -16 21 7 93 166 80 179 -14 14 -29 -2 -41 -44 -7 -22
-15 -40 -19 -40 -4 0 -15 20 -24 45 -17 43 -46 62 -46 30z"/>
<path d="M3594 1096 c-3 -8 -3 -20 1 -26 4 -6 1 -18 -7 -27 -11 -15 -11 -16 5
-10 10 4 21 7 23 7 2 0 4 13 4 29 0 33 -17 51 -26 27z"/>
<path d="M2980 885 c0 -32 -2 -35 -19 -25 -11 5 -29 10 -40 10 -24 0 -61 -45
-61 -75 0 -52 60 -91 100 -65 9 5 19 5 27 -2 19 -16 24 8 21 102 -2 56 -7 85
-15 88 -9 2 -13 -8 -13 -33z m-16 -61 c19 -18 20 -28 6 -55 -20 -36 -70 -17
-70 26 0 41 36 58 64 29z"/>
<path d="M4212 826 c3 -100 21 -137 26 -54 6 88 59 93 64 6 2 -29 8 -52 13
-51 15 4 18 112 4 129 -14 17 -55 18 -66 2 -5 -9 -10 -1 -13 21 -3 19 -11 36
-18 39 -10 3 -12 -17 -10 -92z"/>
<path d="M3142 818 c2 -54 7 -93 13 -93 6 0 11 15 13 33 4 44 32 42 70 -5 24
-29 33 -35 43 -26 9 9 7 18 -9 40 -20 29 -20 29 -1 41 24 16 25 63 1 85 -13
12 -37 17 -76 17 l-57 0 3 -92z m108 47 c19 -22 -5 -45 -46 -45 -31 0 -34 3
-34 30 0 27 3 30 34 30 18 0 39 -7 46 -15z"/>
<path d="M2561 861 c-7 -5 -10 -14 -7 -20 4 -6 12 -9 17 -5 14 8 59 -4 59 -16
0 -6 -15 -10 -34 -10 -56 0 -83 -41 -50 -74 11 -12 29 -15 62 -12 l47 4 3 55
c2 40 -1 59 -13 71 -18 17 -62 21 -84 7z m69 -86 c0 -19 -32 -36 -49 -25 -8 4
-11 15 -8 24 8 20 57 22 57 1z"/>
<path d="M2751 861 c-7 -5 -22 -6 -33 -3 -18 4 -19 0 -16 -64 3 -78 20 -89 28
-19 11 86 61 88 70 1 7 -63 24 -59 28 8 4 72 -30 106 -77 77z"/>
<path d="M3340 850 c-12 -12 -20 -33 -20 -55 0 -61 57 -94 111 -64 28 14 14
29 -21 22 -19 -3 -36 0 -47 8 -14 12 -11 15 33 19 44 5 49 8 52 32 6 50 -69
77 -108 38z m78 -32 c3 -15 -4 -18 -32 -18 -38 0 -44 8 -24 28 17 17 52 11 56
-10z"/>
<path d="M3495 854 c-24 -24 -15 -47 28 -67 50 -25 48 -41 -3 -33 -43 7 -54
-6 -20 -24 48 -26 108 9 84 48 -6 9 -26 24 -44 33 -37 18 -26 35 15 25 30 -8
42 10 16 23 -28 16 -57 13 -76 -5z"/>
<path d="M3640 850 c-29 -29 -27 -94 2 -114 35 -25 98 -18 98 10 0 10 -8 12
-30 8 -19 -4 -36 -1 -47 7 -14 12 -11 15 33 19 44 5 49 8 52 32 6 50 -69 77
-108 38z m68 -22 c20 -20 14 -28 -23 -28 -19 0 -35 4 -35 8 0 12 22 32 35 32
6 0 16 -5 23 -12z"/>
<path d="M3800 860 c-20 -12 -6 -24 32 -24 44 -1 50 -26 6 -26 -19 0 -39 -5
-46 -12 -16 -16 -15 -53 2 -67 16 -14 98 -11 108 4 16 22 8 95 -12 115 -21 21
-65 26 -90 10z m74 -79 c9 -14 -29 -42 -48 -35 -16 6 -21 25 -9 37 9 10 51 9
57 -2z"/>
<path d="M3996 861 c-3 -5 -15 -7 -26 -4 -20 5 -21 2 -18 -63 3 -74 21 -94 26
-29 2 29 10 46 29 61 14 12 22 27 19 33 -9 13 -23 14 -30 2z"/>
<path d="M4077 858 c-46 -36 -38 -113 14 -132 34 -11 79 0 79 20 0 12 -7 14
-30 9 -37 -8 -60 8 -60 40 0 32 23 48 60 40 23 -5 30 -3 30 8 0 27 -63 37 -93
15z"/>
<path d="M2892 523 c201 -2 534 -2 740 0 205 1 40 2 -367 2 -407 0 -575 -1
-373 -2z"/>
<path d="M2552 318 c-25 -25 -14 -55 27 -71 48 -19 56 -31 35 -48 -12 -10 -22
-10 -45 -2 -23 9 -29 9 -26 0 2 -7 23 -12 48 -12 38 0 44 3 47 23 5 30 -11 48
-48 56 -22 4 -30 11 -30 27 0 19 4 21 40 16 35 -4 39 -3 29 9 -14 17 -61 18
-77 2z"/>
<path d="M2700 255 c0 -43 4 -75 10 -75 6 0 10 32 10 75 0 43 -4 75 -10 75 -6
0 -10 -32 -10 -75z"/>
<path d="M2787 324 c-11 -11 -9 -144 3 -144 5 0 10 26 12 57 l3 57 44 -57 c24
-31 47 -57 52 -57 5 0 9 34 9 76 0 47 -4 73 -10 69 -5 -3 -10 -30 -10 -58 l-1
-52 -27 34 c-53 68 -67 82 -75 75z"/>
<path d="M2992 307 c-49 -52 -16 -132 53 -130 46 1 55 9 55 49 0 31 -2 34 -30
34 -16 0 -30 -4 -30 -10 0 -5 11 -10 25 -10 28 0 33 -21 11 -40 -22 -18 -57
-8 -79 21 -17 24 -18 30 -5 55 12 25 19 29 56 28 42 -1 55 9 26 20 -31 12 -61
6 -82 -17z"/>
<path d="M3185 258 c-34 -71 -39 -102 -9 -60 21 31 76 30 97 0 8 -13 17 -20
21 -17 6 6 -60 149 -69 149 -3 0 -21 -32 -40 -72z m54 -26 c-41 -7 -47 0 -31
38 l14 35 18 -35 c18 -34 18 -35 -1 -38z"/>
<path d="M3357 323 c-11 -10 -8 -143 3 -143 6 0 10 11 10 25 0 20 5 25 26 25
41 0 64 18 64 50 0 19 -7 33 -19 40 -22 11 -74 14 -84 3z m82 -31 c13 -25 -4
-42 -41 -42 -24 0 -28 4 -28 30 0 27 3 30 30 30 18 0 33 -7 39 -18z"/>
<path d="M3536 309 c-32 -25 -35 -75 -7 -110 14 -17 28 -23 57 -22 47 1 74 30
74 78 0 38 -37 75 -75 75 -12 0 -34 -9 -49 -21z m86 -16 c36 -32 12 -103 -35
-103 -30 0 -57 29 -57 61 0 52 53 77 92 42z"/>
<path d="M3721 253 c1 -43 4 -65 6 -50 6 41 29 44 67 8 41 -39 54 -40 26 -1
-12 17 -16 30 -10 30 6 0 16 12 22 26 11 23 10 29 -11 45 -14 11 -39 19 -62
19 l-39 0 1 -77z m89 42 c19 -23 -6 -47 -44 -43 -25 2 -32 8 -34 31 -3 25 -1
27 31 27 19 0 40 -7 47 -15z"/>
<path d="M3897 323 c-4 -3 -7 -37 -7 -75 l0 -68 58 2 57 1 -45 6 c-37 5 -46
10 -48 29 -3 20 1 22 37 22 23 0 41 5 41 10 0 6 -18 10 -40 10 -36 0 -40 3
-40 25 0 23 4 25 45 25 25 0 45 5 45 10 0 11 -93 14 -103 3z"/>
</g>
</svg>
