<?xml version="1.0" encoding="utf-8"?><!-- Generator: Adobe Illustrator 15.0.0, SVG Export Plug-In . SVG Version: 6.00 Build 0)  --><!DOCTYPE svg PUBLIC "-//W3C//DTD SVG 1.1//EN" "http://www.w3.org/Graphics/SVG/1.1/DTD/svg11.dtd"><svg id="Layer_1" data-name="Layer 1" xmlns="http://www.w3.org/2000/svg" viewBox="0 0 224.5 61.23"><rect width="224.5" height="61.23" style="fill:#fff;opacity:0"/><path d="M122.48,20.41V12.77h5.14v1.56h-3.36v1.44h3.17v1.48h-3.17v1.58h3.55v1.58Z" style="fill:#c81919"/><path d="M129.31,20.41V12.77h1.86v7.64Z" style="fill:#c81919"/><path d="M137.8,20.41l-3.08-5h0l0,5h-1.79V12.77h2.11l3.07,5h0l-.05-5h1.8v7.64Z" style="fill:#c81919"/><path d="M148.81,16.57a3.71,3.71,0,0,1-.37,1.73,3.41,3.41,0,0,1-1,1.2,4.26,4.26,0,0,1-1.38.69,5.48,5.48,0,0,1-1.55.22h-2.85V12.77h2.76A7.21,7.21,0,0,1,146,13a4.15,4.15,0,0,1,1.4.63,3.28,3.28,0,0,1,1,1.17A3.94,3.94,0,0,1,148.81,16.57Zm-1.92,0a2.4,2.4,0,0,0-.21-1.07,1.8,1.8,0,0,0-.56-.68,2.16,2.16,0,0,0-.8-.36,3.56,3.56,0,0,0-.92-.11h-.92v4.46h.87a3.82,3.82,0,0,0,1-.11,2.32,2.32,0,0,0,.81-.37,1.83,1.83,0,0,0,.56-.69A2.46,2.46,0,0,0,146.89,16.57Z" style="fill:#c81919"/><path d="M155,20.41V17.22h-3v3.19H150.2V12.77H152v2.89h3V12.77h1.85v7.64Z" style="fill:#c81919"/><path d="M166.61,16.56a4.22,4.22,0,0,1-.32,1.65,3.7,3.7,0,0,1-.86,1.29,4,4,0,0,1-1.33.82,4.9,4.9,0,0,1-3.32,0,3.72,3.72,0,0,1-2.19-2.11,4.57,4.57,0,0,1,0-3.31,3.6,3.6,0,0,1,.87-1.25,3.68,3.68,0,0,1,1.32-.8,5.06,5.06,0,0,1,3.32,0,3.81,3.81,0,0,1,1.33.8,3.45,3.45,0,0,1,.86,1.25A4.24,4.24,0,0,1,166.61,16.56Zm-2,0a2.6,2.6,0,0,0-.16-.93,2.29,2.29,0,0,0-.45-.74,2.14,2.14,0,0,0-.69-.48,2.18,2.18,0,0,0-.89-.18,2.14,2.14,0,0,0-.89.18,2.38,2.38,0,0,0-.69.48,2.29,2.29,0,0,0-.45.74,2.83,2.83,0,0,0-.15.93,2.67,2.67,0,0,0,.16,1,2.34,2.34,0,0,0,.45.75,1.94,1.94,0,0,0,.68.49,2.14,2.14,0,0,0,.89.18,2.1,2.1,0,0,0,.88-.18,2,2,0,0,0,.7-.49,2.34,2.34,0,0,0,.45-.75A2.67,2.67,0,0,0,164.63,16.56Z" style="fill:#c81919"/><path d="M171.53,20.41h-1.85l-2.89-7.64h2.07l1.77,5.42h0l1.76-5.42h2Z" style="fill:#c81919"/><path d="M175.36,20.41V12.77h5.14v1.56h-3.36v1.44h3.17v1.48h-3.17v1.58h3.55v1.58Z" style="fill:#c81919"/><path d="M187,20.41l-3.08-5h0l0,5h-1.79V12.77h2.1l3.07,5h0l0-5h1.79v7.64Z" style="fill:#c81919"/><path d="M126.48,39.86v6.06h-1.84V39.86h-2.16V38.28h6.16v1.58Z" style="fill:#c81919"/><path d="M129.64,45.92V38.28h5.14v1.56h-3.36v1.44h3.17v1.48h-3.17v1.59H135v1.57Z" style="fill:#c81919"/><path d="M141.8,45.79a4.17,4.17,0,0,1-1.71.34,4.59,4.59,0,0,1-1.64-.29,3.91,3.91,0,0,1-1.3-.83,3.82,3.82,0,0,1-.87-1.28,4.32,4.32,0,0,1-.31-1.64,4.24,4.24,0,0,1,.32-1.66,3.71,3.71,0,0,1,.88-1.27,3.83,3.83,0,0,1,1.32-.8,4.58,4.58,0,0,1,1.63-.28,4.38,4.38,0,0,1,1.59.29,3,3,0,0,1,1.27.83l-1.25,1.25a1.63,1.63,0,0,0-.68-.53,2.36,2.36,0,0,0-.87-.17,2.18,2.18,0,0,0-.89.18,2,2,0,0,0-.69.49,2.25,2.25,0,0,0-.46.74,2.52,2.52,0,0,0-.16.93,2.63,2.63,0,0,0,.16.95,2.19,2.19,0,0,0,.45.74,1.87,1.87,0,0,0,.69.48,2.3,2.3,0,0,0,1.83,0,1.83,1.83,0,0,0,.66-.56l1.29,1.2A3.69,3.69,0,0,1,141.8,45.79Z" style="fill:#c81919"/><path d="M148.85,45.92V42.73h-3v3.19H144V38.28h1.85v2.9h3v-2.9h1.85v7.64Z" style="fill:#c81919"/><path d="M157.34,45.92l-3.08-5h0l0,5h-1.79V38.28h2.11l3.06,5h0l-.05-5h1.79v7.64Z" style="fill:#c81919"/><path d="M169.17,42.07a4.27,4.27,0,0,1-.32,1.66A3.82,3.82,0,0,1,168,45a3.9,3.9,0,0,1-1.32.83,4.9,4.9,0,0,1-3.32,0A3.9,3.9,0,0,1,162,45a3.82,3.82,0,0,1-.87-1.28,4.6,4.6,0,0,1,0-3.32,3.6,3.6,0,0,1,.87-1.25,3.83,3.83,0,0,1,1.32-.8,5.06,5.06,0,0,1,3.32,0,3.83,3.83,0,0,1,1.32.8,3.6,3.6,0,0,1,.87,1.25A4.24,4.24,0,0,1,169.17,42.07Zm-2,0a2.84,2.84,0,0,0-.16-.93,2.41,2.41,0,0,0-.45-.74,2.14,2.14,0,0,0-.69-.48,2.18,2.18,0,0,0-.89-.18,2.16,2.16,0,0,0-1.58.66,2.41,2.41,0,0,0-.45.74,2.84,2.84,0,0,0-.16.93,2.73,2.73,0,0,0,.17,1,1.92,1.92,0,0,0,.45.74,2,2,0,0,0,.68.5,2.31,2.31,0,0,0,.89.17,2.26,2.26,0,0,0,.88-.17,2,2,0,0,0,.69-.5A2.06,2.06,0,0,0,167,43,3,3,0,0,0,167.19,42.07Z" style="fill:#c81919"/><path d="M170.55,45.92V38.28h1.86v6h3v1.61Z" style="fill:#c81919"/><path d="M184.25,42.07a4.27,4.27,0,0,1-.32,1.66,3.55,3.55,0,0,1-.87,1.28,3.9,3.9,0,0,1-1.32.83,4.9,4.9,0,0,1-3.32,0A3.9,3.9,0,0,1,177.1,45a3.82,3.82,0,0,1-.87-1.28,4.6,4.6,0,0,1,0-3.32,3.6,3.6,0,0,1,.87-1.25,3.83,3.83,0,0,1,1.32-.8,5.06,5.06,0,0,1,3.32,0,3.83,3.83,0,0,1,1.32.8,3.36,3.36,0,0,1,.87,1.25A4.24,4.24,0,0,1,184.25,42.07Zm-2,0a2.6,2.6,0,0,0-.16-.93,2.41,2.41,0,0,0-.45-.74,2.14,2.14,0,0,0-.69-.48,2.18,2.18,0,0,0-.89-.18,2.14,2.14,0,0,0-.89.18,2.38,2.38,0,0,0-.69.48,2.41,2.41,0,0,0-.45.74,2.83,2.83,0,0,0-.15.93,2.73,2.73,0,0,0,.16,1,2.19,2.19,0,0,0,.45.74,2.1,2.1,0,0,0,.68.5,2.31,2.31,0,0,0,.89.17,2.26,2.26,0,0,0,.88-.17A2.15,2.15,0,0,0,182.11,43,2.73,2.73,0,0,0,182.27,42.07Z" style="fill:#c81919"/><path d="M191.09,45.93a7,7,0,0,1-1.64.19,4.62,4.62,0,0,1-1.69-.3,3.68,3.68,0,0,1-1.33-.82,3.74,3.74,0,0,1-.87-1.26,4.18,4.18,0,0,1-.31-1.65,4.06,4.06,0,0,1,.32-1.66,3.58,3.58,0,0,1,.88-1.27,3.88,3.88,0,0,1,1.31-.8,4.63,4.63,0,0,1,1.64-.28,5.1,5.1,0,0,1,1.68.27,3.5,3.5,0,0,1,1.26.74l-1.16,1.33a2,2,0,0,0-.72-.51,2.29,2.29,0,0,0-1-.2,2.26,2.26,0,0,0-.9.18,2.06,2.06,0,0,0-.71.49,2.27,2.27,0,0,0-.47.76,2.67,2.67,0,0,0-.17,1,2.74,2.74,0,0,0,.16,1,2.11,2.11,0,0,0,.44.76,2,2,0,0,0,.74.5,2.59,2.59,0,0,0,1,.18,4,4,0,0,0,.61,0,2.13,2.13,0,0,0,.54-.16V42.9h-1.46V41.41h3.16v4.05A6.07,6.07,0,0,1,191.09,45.93Z" style="fill:#c81919"/><path d="M197.71,42.69v3.23h-1.85V42.69L193,38.28h2.23l1.63,2.83,1.64-2.83h2.16Z" style="fill:#c81919"/><path d="M128.8,31.54a2.74,2.74,0,0,1-.66,1,3.06,3.06,0,0,1-1,.63,4.11,4.11,0,0,1-2.71,0,2.88,2.88,0,0,1-1-.63,2.85,2.85,0,0,1-.65-1,3.35,3.35,0,0,1-.22-1.25V25.53h1.83v4.6a2.35,2.35,0,0,0,.08.6,1.8,1.8,0,0,0,.25.5,1.14,1.14,0,0,0,.45.35,1.74,1.74,0,0,0,1.32,0,1.14,1.14,0,0,0,.45-.35,1.38,1.38,0,0,0,.25-.5,2.35,2.35,0,0,0,.08-.6v-4.6H129v4.76A3.16,3.16,0,0,1,128.8,31.54Z" style="fill:#c81919"/><path d="M135.61,33.17l-3.08-5h0l0,5h-1.79V25.53h2.1l3.07,5h0l0-5h1.79v7.64Z" style="fill:#c81919"/><path d="M139.48,33.17V25.53h1.86v7.64Z" style="fill:#c81919"/><path d="M147,33.17h-1.85l-2.89-7.64h2.07l1.77,5.41h.05l1.76-5.41h2Z" style="fill:#c81919"/><path d="M150.79,33.17V25.53h5.14v1.55h-3.36v1.45h3.18V30h-3.18v1.59h3.55v1.58Z" style="fill:#c81919"/><path d="M161.7,33.17l-1.66-3h-.63v3h-1.8V25.53h2.92a5.47,5.47,0,0,1,1.07.11,2.9,2.9,0,0,1,.94.38,1.91,1.91,0,0,1,.66.72,2.16,2.16,0,0,1,.25,1.1,2,2,0,0,1-.42,1.3,2.32,2.32,0,0,1-1.16.76l2,3.27Zm-.07-5.3a.74.74,0,0,0-.12-.44.73.73,0,0,0-.29-.26,1.25,1.25,0,0,0-.4-.12l-.43,0h-1V28.8h.88a3.89,3.89,0,0,0,.47,0,1.45,1.45,0,0,0,.43-.14.72.72,0,0,0,.32-.28A.77.77,0,0,0,161.63,27.87Z" style="fill:#c81919"/><path d="M169,27.51a1.84,1.84,0,0,0-1.37-.65l-.37,0A1,1,0,0,0,167,27a.82.82,0,0,0-.25.24.62.62,0,0,0-.1.37.53.53,0,0,0,.08.32.63.63,0,0,0,.23.23,1.68,1.68,0,0,0,.38.18l.48.17.81.28a3,3,0,0,1,.77.42,2.07,2.07,0,0,1,.57.64,1.83,1.83,0,0,1,.23.95,2.52,2.52,0,0,1-.24,1.14,2.22,2.22,0,0,1-.66.79,2.68,2.68,0,0,1-.94.47,3.93,3.93,0,0,1-1.09.15,4.56,4.56,0,0,1-1.59-.29,3.38,3.38,0,0,1-1.27-.81L165.57,31a2.3,2.3,0,0,0,.74.58,2.08,2.08,0,0,0,.91.23,2.58,2.58,0,0,0,.4,0,1.16,1.16,0,0,0,.34-.14.71.71,0,0,0,.23-.26.8.8,0,0,0,.09-.39.62.62,0,0,0-.11-.37.93.93,0,0,0-.31-.27,2,2,0,0,0-.49-.23l-.68-.22a7.12,7.12,0,0,1-.72-.28,2.42,2.42,0,0,1-.62-.42,1.8,1.8,0,0,1-.44-.61,2,2,0,0,1-.17-.88,2.07,2.07,0,0,1,.26-1.09,2.2,2.2,0,0,1,.68-.74,2.83,2.83,0,0,1,.95-.43,4.3,4.3,0,0,1,1.07-.14,3.93,3.93,0,0,1,1.32.24,3.42,3.42,0,0,1,1.18.7Z" style="fill:#c81919"/><path d="M171.56,33.17V25.53h1.86v7.64Z" style="fill:#c81919"/><path d="M178.41,27.1v6.07h-1.85V27.1H174.4V25.53h6.17V27.1Z" style="fill:#c81919"/><path d="M185.8,29.93v3.24H184V29.93l-2.87-4.4h2.23l1.63,2.82,1.63-2.82h2.16Z" style="fill:#c81919"/><path d="M200.41,29.31A4.42,4.42,0,0,1,200.1,31a3.73,3.73,0,0,1-.87,1.28,3.79,3.79,0,0,1-1.33.83,4.9,4.9,0,0,1-3.32,0,3.84,3.84,0,0,1-1.32-.83A3.57,3.57,0,0,1,192.4,31a4.24,4.24,0,0,1-.32-1.66,4.15,4.15,0,0,1,.32-1.65,3.58,3.58,0,0,1,.86-1.26,4.09,4.09,0,0,1,1.32-.8,5.06,5.06,0,0,1,3.32,0,4,4,0,0,1,1.33.8,3.74,3.74,0,0,1,.87,1.26A4.33,4.33,0,0,1,200.41,29.31Zm-2,0a2.51,2.51,0,0,0-.16-.92,2.19,2.19,0,0,0-.45-.74,2,2,0,0,0-.69-.49,2.29,2.29,0,0,0-1.78,0,2.23,2.23,0,0,0-.69.49,2,2,0,0,0-.44.74,2.51,2.51,0,0,0-.16.92,2.69,2.69,0,0,0,.16,1,2.34,2.34,0,0,0,.45.75,2.08,2.08,0,0,0,.68.49,2.29,2.29,0,0,0,1.78,0,2.23,2.23,0,0,0,.69-.49,2.34,2.34,0,0,0,.45-.75A2.69,2.69,0,0,0,198.43,29.31Z" style="fill:#c81919"/><path d="M203.62,27.1v1.58h3V30.2h-3v3H201.8V25.53h5V27.1Z" style="fill:#c81919"/><path d="M28,19.59V45.92H19.82V19.59H10.21V12.76H37.65v6.83Z" style="fill:#c81919"/><path d="M69,38.87A11.84,11.84,0,0,1,66,43.08a13.56,13.56,0,0,1-4.64,2.74,19,19,0,0,1-12.09,0,13,13,0,0,1-4.57-2.74,11.79,11.79,0,0,1-2.88-4.21,14.31,14.31,0,0,1-1-5.46V12.76H49v20a9,9,0,0,0,.36,2.57,6.52,6.52,0,0,0,1.11,2.18,5,5,0,0,0,2,1.52,8.08,8.08,0,0,0,5.91,0,5.26,5.26,0,0,0,2-1.52,5.86,5.86,0,0,0,1.11-2.18,9.78,9.78,0,0,0,.34-2.57v-20H70V33.41A14,14,0,0,1,69,38.87Z" style="fill:#c81919"/><polygon points="75.08 51.02 91.75 10.21 85.79 10.21 69.13 51.02 75.08 51.02" style="fill:#c81919"/><path d="M99.84,22a12.42,12.42,0,0,0,0,24.83c4.4,0,8.9-1.92,11.32-5.39l-5.63-2.3a7.37,7.37,0,0,1-5.69,2.32,7,7,0,0,1-6.72-4.94h18.95a12.06,12.06,0,0,0,.19-2.1A12.42,12.42,0,0,0,99.84,22Zm0,5.38a7.05,7.05,0,0,1,6.52,4.37h-13A7.05,7.05,0,0,1,99.84,27.35Z" style="fill:#c81919"/></svg>